{"title":"They call me Lucky","uid":7390783,"size":1050585278,"categoryP":"video","categoryS":"movies","magnet":"?xt=urn:btih:1084ff176485b0dd5e739651d7e76a7d9f51444c&amp;dn=They+call+me+Lucky&amp;tr=udp%3A%2F%2Ftracker.openbittorrent.com%3A80&amp;tr=udp%3A%2F%2Fopen.demonii.com%3A1337&amp;tr=udp%3A%2F%2Ftracker.coppersurfer.tk%3A6969&amp;tr=udp%3A%2F%2Fexodus.desync.com%3A6969","seeders":0,"leechers":1,"uploader":"90stosa","files":1,"time":1340769815,"description":"English audio\n\nInput #0, avi, from 'Videos/TheyCallMeLucky-xvid-1973.byraphalv.avi':\n  Metadata:\n    encoder         : Lavf52.111.0\n    encoded_by      : raphalv\n  Duration: 01:39:00.27, start: 0.000000, bitrate: 1414 kb/s\n    Stream #0.0: Video: mpeg4, yuv420p, 640x272 [PAR 17:30 DAR 4:3], 23.98 tbr, 23.98 tbn, 23.98 tbc\n    Stream #0.1: Audio: mp3, 48000 Hz, stereo, s16, 128 kb/s","torrent":{"xt":"urn:btih:1084ff176485b0dd5e739651d7e76a7d9f51444c","amp;dn":"They+call+me+Lucky","amp;tr":["udp%3A%2F%2Ftracker.openbittorrent.com%3A80","udp%3A%2F%2Fopen.demonii.com%3A1337","udp%3A%2F%2Ftracker.coppersurfer.tk%3A6969","udp%3A%2F%2Fexodus.desync.com%3A6969"],"infoHash":"1084ff176485b0dd5e739651d7e76a7d9f51444c","infoHashBuffer":{"type":"Buffer","data":[16,132,255,23,100,133,176,221,94,115,150,81,215,231,106,125,159,81,68,76]},"announce":[],"urlList":[]}}